{"title":"Sinister.2011.DVDRip.XViD.SeT-CM8","uid":6881484,"size":771966641,"categoryP":"video","categoryS":"movies","magnet":"?xt=urn:btih:f63d1769b039bdbcc94951ed40899d5162e885a3&amp;dn=Sinister.2011.DVDRip.XViD.SeT-CM8&amp;tr=udp%3A%2F%2Ftracker.openbittorrent.com%3A80&amp;tr=udp%3A%2F%2Fopen.demonii.com%3A1337&amp;tr=udp%3A%2F%2Ftracker.coppersurfer.tk%3A6969&amp;tr=udp%3A%2F%2Fexodus.desync.com%3A6969","seeders":1,"leechers":0,"uploader":"HeroMaster","files":-1,"time":1323681983,"description":"Sinister 2011 DVDRip XViD SeT-CM8\n\nA horrifying excursion into black magic and white-knuckled terror! A conjure man (Lucien Eisenach) has moved into town with a big bag of tricks and a short temper.\nUnwittingly, Emily (Donna Hamblin) crosses his path and provokes his wrath. As the nightmare of his curse progresses, Emily enlists the aid of her brother (Donny Versiga) to find\nout what's happening and try to reverse the hex before it's too late!\n &lt;a href=&quot;\nhttp://www.imdb.com/title/tt1841835/&quot; rel=&quot;nofollow&quot; target=&quot;_NEW&quot;&gt;\nhttp://www.imdb.com/title/tt1841835/&lt;/a&gt;\n\nCM8 Doing It Right The First Time\n\nSource:  Own\n\nGeneral\nComplete name                    : Sinister.2011.DVDRip.XViD.SeT-CM8.avi\nFormat                           : AVI\nFormat/Info                      : Audio Video Interleave\nFile size                        : 726 MiB\nDuration                         : 1h 26mn\nOverall bit rate                 : 1 172 Kbps\n\nVideo\nID                               : 0\nFormat                           : MPEG-4 Visual\nFormat profile                   : Advanced Simple@L5\nFormat settings, BVOP            : 2\nFormat settings, QPel            : No\nFormat settings, GMC             : No warppoints\nFormat settings, Matrix          : Default (H.263)\nCodec ID                         : XVID\nCodec ID/Hint                    : XviD\nDuration                         : 1h 26mn\nBit rate                         : 968 Kbps\nWidth                            : 720 pixels\nHeight                           : 404 pixels\nDisplay aspect ratio             : 16:9\nFrame rate                       : 29.970 fps\nColor space                      : YUV\nChroma subsampling               : 4:2:0\nBit depth                        : 8 bits\nScan type                        : Progressive\nCompression mode                 : Lossy\nBits/(Pixel*Frame)               : 0.111\nStream size                      : 600 MiB (83%)\nWriting library                  : XviD 1.2.1 (UTC 2008-12-04)\n\nAudio\nID                               : 1\nFormat                           : AC-3\nFormat/Info                      : Audio Coding 3\nMode extension                   : CM (complete main)\nCodec ID                         : 2000\nDuration                         : 1h 26mn\nBit rate mode                    : Constant\nBit rate                         : 192 Kbps\nChannel(s)                       : 2 channels\nChannel positions                : Front: L R\nSampling rate                    : 48.0 KHz\nBit depth                        : 16 bits\nCompression mode                 : Lossy\nStream size                      : 119 MiB (16%)\nAlignment                        : Aligned on interleaves\nInterleave, duration             : 33 ms (1.00 video frame)\n\n\nnotes\nO.k. First of, there is no denying &quot;this is a B movie&quot; its wierd , creepy but \nno where near a high budget movie.\ni kept the bitrate/size low as for the reasons above and also the quality of \nthe source R1 dvd, So don't expect bluray quality..... it aint going to happen\nEnjoy\n\n\nLOOKING FOR ANYTHING YOU WANT TO LOOK AND SOUND BETTER\n\n&lt;a class=&quot;__cf_email__&quot; href=&quot;/cdn-cgi/l/email-protection&quot; data-cfemail=&quot;87c4cabfc7eff2f4efeae6eeeba9e4e8ea&quot;&gt;[email&amp;#160;protected]&lt;/a&gt;&lt;script cf-hash='f9e31' type=&quot;text/javascript&quot;&gt;\n/* &lt;![CDATA[ */!function(){try{var t=&quot;currentScript&quot;in document?document.currentScript:function(){for(var t=document.getElementsByTagName(&quot;script&quot;),e=t.length;e--;)if(t[e].getAttribute(&quot;cf-hash&quot;))return t[e]}();if(t&amp;&amp;t.previousSibling){var e,r,n,i,c=t.previousSibling,a=c.getAttribute(&quot;data-cfemail&quot;);if(a){for(e=&quot;&quot;,r=parseInt(a.substr(0,2),16),n=2;a.length-n;n+=2)i=parseInt(a.substr(n,2),16)^r,e+=String.fromCharCode(i);e=document.createTextNode(e),c.parentNode.replaceChild(e,c)}}}catch(u){}}();/* ]]&gt; */&lt;/script&gt;\n\nbig shout out to my Homies Mr Hive , Sir Unevano, Super TED, Pinny and \nMr Simmo. Greets to SAiNTS,DTRG,SANTi,BDK, THC,SAFC, SiC, AMIABLE and mSD\nall the other Ledgends out there Past and Present..\n\n\nPoster:\n\n &lt;a href=&quot;\nhttp://i.imgur.com/Ml960.jpg&quot; rel=&quot;nofollow&quot; target=&quot;_NEW&quot;&gt;\nhttp://i.imgur.com/Ml960.jpg&lt;/a&gt;\n\n\nScreenshots:\n\n &lt;a href=&quot;\nhttp://i.imgur.com/w3whZ.jpg&quot; rel=&quot;nofollow&quot; target=&quot;_NEW&quot;&gt;\nhttp://i.imgur.com/w3whZ.jpg&lt;/a&gt;\n\n\nENJOY!","torrent":{"xt":"urn:btih:f63d1769b039bdbcc94951ed40899d5162e885a3","amp;dn":"Sinister.2011.DVDRip.XViD.SeT-CM8","amp;tr":["udp%3A%2F%2Ftracker.openbittorrent.com%3A80","udp%3A%2F%2Fopen.demonii.com%3A1337","udp%3A%2F%2Ftracker.coppersurfer.tk%3A6969","udp%3A%2F%2Fexodus.desync.com%3A6969"],"infoHash":"f63d1769b039bdbcc94951ed40899d5162e885a3","infoHashBuffer":{"type":"Buffer","data":[246,61,23,105,176,57,189,188,201,73,81,237,64,137,157,81,98,232,133,163]},"announce":[],"urlList":[]}}